<svg id="SvgjsSvg1013" width="288" height="288" xmlns="http://www.w3.org/2000/svg" version="1.1" xmlns:xlink="http://www.w3.org/1999/xlink" xmlns:svgjs="http://svgjs.com/svgjs"><defs id="SvgjsDefs1014"></defs><g id="SvgjsG1015"><svg xmlns="http://www.w3.org/2000/svg" viewBox="0 0 64 64" width="288" height="288"><circle cx="32" cy="32" r="32" fill="#ffffff" class="color223551 svgShape"></circle><path fill="#5fc6c4" d="M43.82 33.11c.43-.95.68-1.96.67-2.99-.04-1.92-.62-4.75-3.24-7.25-2.27-2.18-5.33-3.33-8.48-3.51-3.51-.21-8.57.38-12.38 4.46-5.36 5.73-2.69 11.78-.84 14.64 2.37 3.66 3.16 7.64 2.1 11.87a29.638 29.638 0 0 1-.63 2.17h14.5c.01-.03.01-.05.01-.09-.21-1.98 1.19-3.75 3.18-3.6 1.2.09 2.02.21 2.96.01 1.39-.29 1.22-1.75 1.02-2.41-.21-.66.08-1.07.08-1.07.49-.44.68-.76.74-.95.04-.12.03-.24-.01-.35l-.27-.61.63-.43a.53.53 0 0 0 .2-.47c-.13-1.01-.04-2.02-.04-2.02s.85-.14 1.58-.47c.88-.41-.95-3.19-1.76-4.67-.47-.84-.27-1.68-.02-2.26zm-4.21-2.46c.17.42.08.89-.52 1.31-.72.5-2.64.85-4.18.71.51.59.67 1.41-.2 2.11-.52.43-1.65.78-2.82.88-1.6 1.41-1.58 5.23-1.58 5.23h-1.39c-.01-.46-.23-2.49-.36-3.12-.51.63-1.27 1.07-2.05 1-1.25-.12-1.9-1.29-1.9-2.54v-.03c-.28.19-.62.31-.99.31-.97 0-1.75-.79-1.75-1.76 0-.19.03-.38.1-.56-1.69-.36-2.04-4.44-.16-5.62-.26-.32-.37-.77-.26-1.23.15-.58.62-1.02 1.13-1.13a1.012 1.012 0 0 1 .94-1.35c.07 0 .15.01.22.03a1.74 1.74 0 0 1 2.45-1.09c.27-.61.88-1.03 1.6-1.03.27 0 .52.06.74.17.4-.37.94-.6 1.53-.6.6 0 1.15.24 1.56.63.32-.23.72-.37 1.16-.37.79 0 1.46.46 1.8 1.11.28-.15.61-.25.95-.25.92 0 1.68.62 1.93 1.47.08-.03.17-.04.26-.04.54 0 1.41.32 1.31 1.28.64.35 1.27 1.03 1.58 1.98.31.91.04 2.5-1.1 2.5z" class="colorecb521 svgShape"></path><path fill="#008196" d="M30.69 16.15c.44 0 .8-.36.8-.8V12.3c0-.44-.36-.8-.8-.8-.44 0-.8.36-.8.8v3.06c0 .43.36.79.8.79zm-8.94 1.81a.794.794 0 0 0 1.09.29.8.8 0 0 0 .29-1.09l-1.53-2.65a.794.794 0 0 0-1.09-.29.8.8 0 0 0-.29 1.09l1.53 2.65zm-4.95 4.95-2.65-1.53a.794.794 0 0 0-1.09.29.8.8 0 0 0 .29 1.09L16 24.29a.794.794 0 0 0 1.09-.29c.22-.38.08-.87-.29-1.09zm33.45 8.15h-3.06c-.44 0-.8.36-.8.8 0 .44.36.8.8.8h3.06c.44 0 .8-.36.8-.8a.809.809 0 0 0-.8-.8zm-5.27-6.66c.14 0 .28-.04.4-.11l2.65-1.53a.8.8 0 0 0-.4-1.49c-.14 0-.28.04-.4.11l-2.65 1.53a.8.8 0 0 0 .4 1.49zm-6.44-6.15a.794.794 0 0 0 1.09-.29l1.53-2.65a.8.8 0 0 0-.69-1.2c-.28 0-.55.15-.69.4l-1.53 2.65a.8.8 0 0 0 .29 1.09z" class="colorfff svgShape"></path></svg></g></svg>