<?xml version="1.0" standalone="no"?>
<svg xmlns:xlink="http://www.w3.org/1999/xlink" id="wave" style="transform:rotate(0deg); transition: 0.3s" viewBox="0 0 1440 490" version="1.1" xmlns="http://www.w3.org/2000/svg"><defs><linearGradient id="sw-gradient-0" x1="0" x2="0" y1="1" y2="0"><stop stop-color="rgba(49, 137, 253, 1)" offset="0%"/><stop stop-color="rgba(209.561, 229.228, 255, 1)" offset="100%"/></linearGradient></defs><path style="transform:translate(0, 0px); opacity:1" fill="url(#sw-gradient-0)" d="M0,294L80,318.5C160,343,320,392,480,367.5C640,343,800,245,960,245C1120,245,1280,343,1440,334.8C1600,327,1760,212,1920,138.8C2080,65,2240,33,2400,16.3C2560,0,2720,0,2880,16.3C3040,33,3200,65,3360,81.7C3520,98,3680,98,3840,89.8C4000,82,4160,65,4320,49C4480,33,4640,16,4800,16.3C4960,16,5120,33,5280,106.2C5440,180,5600,310,5760,310.3C5920,310,6080,180,6240,163.3C6400,147,6560,245,6720,261.3C6880,278,7040,212,7200,163.3C7360,114,7520,82,7680,73.5C7840,65,8000,82,8160,138.8C8320,196,8480,294,8640,326.7C8800,359,8960,327,9120,294C9280,261,9440,229,9600,212.3C9760,196,9920,196,10080,163.3C10240,131,10400,65,10560,32.7C10720,0,10880,0,11040,73.5C11200,147,11360,294,11440,367.5L11520,441L11520,490L11440,490C11360,490,11200,490,11040,490C10880,490,10720,490,10560,490C10400,490,10240,490,10080,490C9920,490,9760,490,9600,490C9440,490,9280,490,9120,490C8960,490,8800,490,8640,490C8480,490,8320,490,8160,490C8000,490,7840,490,7680,490C7520,490,7360,490,7200,490C7040,490,6880,490,6720,490C6560,490,6400,490,6240,490C6080,490,5920,490,5760,490C5600,490,5440,490,5280,490C5120,490,4960,490,4800,490C4640,490,4480,490,4320,490C4160,490,4000,490,3840,490C3680,490,3520,490,3360,490C3200,490,3040,490,2880,490C2720,490,2560,490,2400,490C2240,490,2080,490,1920,490C1760,490,1600,490,1440,490C1280,490,1120,490,960,490C800,490,640,490,480,490C320,490,160,490,80,490L0,490Z"/></svg>